<svg xmlns="http://www.w3.org/2000/svg" viewBox="0 0 100 100" width="50" height="50">
  <defs>
    <linearGradient id="mysqlBlue" x1="0%" y1="0%" x2="100%" y2="100%">
      <stop offset="0%" style="stop-color:#4479A1;stop-opacity:1" />
      <stop offset="100%" style="stop-color:#336791;stop-opacity:1" />
    </linearGradient>
    <linearGradient id="mysqlOrange" x1="0%" y1="0%" x2="100%" y2="100%">
      <stop offset="0%" style="stop-color:#F29111;stop-opacity:1" />
      <stop offset="100%" style="stop-color:#E68A00;stop-opacity:1" />
    </linearGradient>
  </defs>
  
  <!-- Background -->
  <circle cx="50" cy="50" r="45" fill="white"/>
  
  <!-- MySQL Dolphin inspired logo -->
  <g transform="translate(50,50)">
    <!-- Dolphin body -->
    <ellipse cx="-5" cy="0" rx="18" ry="12" fill="url(#mysqlBlue)"/>
    
    <!-- Dolphin head -->
    <ellipse cx="10" cy="-5" rx="8" ry="10" fill="url(#mysqlBlue)"/>
    
    <!-- Dolphin tail -->
    <path d="M-23,-5 Q-30,-10 -25,-15 Q-28,-8 -23,0 Q-28,8 -25,15 Q-30,10 -23,5" fill="url(#mysqlBlue)"/>
    
    <!-- Dolphin fin -->
    <path d="M-8,-12 Q-5,-18 0,-15 Q-3,-12 -8,-12" fill="url(#mysqlBlue)"/>
    
    <!-- Eye -->
    <circle cx="8" cy="-8" r="2" fill="white"/>
    <circle cx="8" cy="-8" r="1" fill="black"/>
    
    <!-- MySQL text styling -->
    <text x="0" y="25" text-anchor="middle" fill="url(#mysqlOrange)" font-family="Arial, sans-serif" font-size="8" font-weight="bold">MySQL</text>
  </g>
  
  <!-- Database symbols -->
  <g transform="translate(25,25)" opacity="0.4">
    <rect x="0" y="0" width="8" height="2" rx="1" fill="url(#mysqlBlue)"/>
    <rect x="0" y="3" width="8" height="2" rx="1" fill="url(#mysqlBlue)"/>
    <rect x="0" y="6" width="8" height="2" rx="1" fill="url(#mysqlBlue)"/>
  </g>
  
  <g transform="translate(67,70)" opacity="0.4">
    <rect x="0" y="0" width="6" height="1.5" rx="0.5" fill="url(#mysqlOrange)"/>
    <rect x="0" y="2.5" width="6" height="1.5" rx="0.5" fill="url(#mysqlOrange)"/>
    <rect x="0" y="5" width="6" height="1.5" rx="0.5" fill="url(#mysqlOrange)"/>
  </g>
</svg>